<svg width="40" height="40" viewBox="0 0 40 40" fill="none" xmlns="http://www.w3.org/2000/svg">
<g opacity="0.8">
<path d="M7.63666 15H6.66666V6.66665L7.63666 15ZM7.63666 15C8.74307 12.2635 10.7261 9.9715 13.275 8.48308C15.8239 6.99467 18.7947 6.394 21.7216 6.77521C24.6485 7.15643 27.3663 8.49797 29.4489 10.5896C31.5316 12.6812 32.8614 15.4048 33.23 18.3333M7.63666 15H15M32.365 25H33.3333V33.3333L32.365 25ZM32.365 25C31.257 27.7348 29.2734 30.0251 26.7247 31.5121C24.1761 32.9992 21.2062 33.5992 18.2802 33.2181C15.3541 32.837 12.637 31.4964 10.5542 29.4062C8.47144 27.3159 7.14058 24.5941 6.76999 21.6666M32.365 25H25" stroke="#121212" stroke-linecap="round" stroke-linejoin="round"/>
</g>
</svg>
