<svg width="32" height="26" viewBox="0 0 32 26" fill="none" xmlns="http://www.w3.org/2000/svg">
<path d="M17.6667 19.6666V2.99998C17.6667 2.55795 17.4911 2.13403 17.1785 1.82147C16.8659 1.50891 16.442 1.33331 16 1.33331H2.66667C2.22464 1.33331 1.80072 1.50891 1.48816 1.82147C1.17559 2.13403 1 2.55795 1 2.99998V19.6666C1 20.1087 1.17559 20.5326 1.48816 20.8452C1.80072 21.1577 2.22464 21.3333 2.66667 21.3333H4.33333M17.6667 19.6666C17.6667 20.1087 17.4911 20.5326 17.1785 20.8452C16.8659 21.1577 16.442 21.3333 16 21.3333H11M17.6667 19.6666V6.33331C17.6667 5.89129 17.8423 5.46736 18.1548 5.1548C18.4674 4.84224 18.8913 4.66665 19.3333 4.66665H23.6433C24.0853 4.66674 24.5092 4.8424 24.8217 5.15498L30.5117 10.845C30.8242 11.1575 30.9999 11.5813 31 12.0233V19.6666C31 20.1087 30.8244 20.5326 30.5118 20.8452C30.1993 21.1577 29.7754 21.3333 29.3333 21.3333H27.6667M17.6667 19.6666C17.6667 20.1087 17.8423 20.5326 18.1548 20.8452C18.4674 21.1577 18.8913 21.3333 19.3333 21.3333H21M4.33333 21.3333C4.33333 22.2174 4.68452 23.0652 5.30964 23.6903C5.93477 24.3155 6.78261 24.6666 7.66667 24.6666C8.55072 24.6666 9.39857 24.3155 10.0237 23.6903C10.6488 23.0652 11 22.2174 11 21.3333M4.33333 21.3333C4.33333 20.4493 4.68452 19.6014 5.30964 18.9763C5.93477 18.3512 6.78261 18 7.66667 18C8.55072 18 9.39857 18.3512 10.0237 18.9763C10.6488 19.6014 11 20.4493 11 21.3333M27.6667 21.3333C27.6667 22.2174 27.3155 23.0652 26.6904 23.6903C26.0652 24.3155 25.2174 24.6666 24.3333 24.6666C23.4493 24.6666 22.6014 24.3155 21.9763 23.6903C21.3512 23.0652 21 22.2174 21 21.3333M27.6667 21.3333C27.6667 20.4493 27.3155 19.6014 26.6904 18.9763C26.0652 18.3512 25.2174 18 24.3333 18C23.4493 18 22.6014 18.3512 21.9763 18.9763C21.3512 19.6014 21 20.4493 21 21.3333" stroke="#121212" stroke-linecap="round" stroke-linejoin="round"/>
</svg>
